<mxfile host="app.diagrams.net" modified="2020-10-31T05:13:56.064Z" agent="5.0 (Macintosh; Intel Mac OS X 10_15_6) AppleWebKit/605.1.15 (KHTML, like Gecko) Version/14.0 Safari/605.1.15" etag="bXb3AhmVVCRtQt3wzf_9" version="13.8.8" type="github" pages="3">
  <diagram id="C5RBs43oDa-KdzZeNtuy" name="Page-1">
    <mxGraphModel dx="613" dy="560" grid="1" gridSize="10" guides="1" tooltips="1" connect="1" arrows="1" fold="1" page="1" pageScale="1" pageWidth="827" pageHeight="1169" math="0" shadow="0">
      <root>
        <mxCell id="WIyWlLk6GJQsqaUBKTNV-0" />
        <mxCell id="WIyWlLk6GJQsqaUBKTNV-1" parent="WIyWlLk6GJQsqaUBKTNV-0" />
        <mxCell id="oElp1IYT9QteZJqBJ_s0-12" value="" style="edgeStyle=orthogonalEdgeStyle;rounded=0;orthogonalLoop=1;jettySize=auto;html=1;" edge="1" parent="WIyWlLk6GJQsqaUBKTNV-1" source="WIyWlLk6GJQsqaUBKTNV-11" target="oElp1IYT9QteZJqBJ_s0-6">
          <mxGeometry relative="1" as="geometry" />
        </mxCell>
        <mxCell id="WIyWlLk6GJQsqaUBKTNV-11" value="receiver(d, ring_id)" style="rounded=1;whiteSpace=wrap;html=1;fontSize=12;glass=0;strokeWidth=1;shadow=0;" parent="WIyWlLk6GJQsqaUBKTNV-1" vertex="1">
          <mxGeometry x="150" y="330" width="120" height="40" as="geometry" />
        </mxCell>
        <mxCell id="WIyWlLk6GJQsqaUBKTNV-2" value="" style="rounded=0;html=1;jettySize=auto;orthogonalLoop=1;fontSize=11;endArrow=block;endFill=0;endSize=8;strokeWidth=1;shadow=0;labelBackgroundColor=none;edgeStyle=orthogonalEdgeStyle;" parent="WIyWlLk6GJQsqaUBKTNV-1" source="WIyWlLk6GJQsqaUBKTNV-3" target="WIyWlLk6GJQsqaUBKTNV-6" edge="1">
          <mxGeometry relative="1" as="geometry" />
        </mxCell>
        <mxCell id="WIyWlLk6GJQsqaUBKTNV-3" value="main()" style="rounded=1;whiteSpace=wrap;html=1;fontSize=12;glass=0;strokeWidth=1;shadow=0;" parent="WIyWlLk6GJQsqaUBKTNV-1" vertex="1">
          <mxGeometry x="150" width="120" height="40" as="geometry" />
        </mxCell>
        <mxCell id="WIyWlLk6GJQsqaUBKTNV-5" value="No" style="edgeStyle=orthogonalEdgeStyle;rounded=0;html=1;jettySize=auto;orthogonalLoop=1;fontSize=11;endArrow=block;endFill=0;endSize=8;strokeWidth=1;shadow=0;labelBackgroundColor=none;" parent="WIyWlLk6GJQsqaUBKTNV-1" source="WIyWlLk6GJQsqaUBKTNV-6" target="WIyWlLk6GJQsqaUBKTNV-7" edge="1">
          <mxGeometry y="10" relative="1" as="geometry">
            <mxPoint as="offset" />
          </mxGeometry>
        </mxCell>
        <mxCell id="oElp1IYT9QteZJqBJ_s0-3" style="edgeStyle=orthogonalEdgeStyle;rounded=0;orthogonalLoop=1;jettySize=auto;html=1;entryX=0.5;entryY=0;entryDx=0;entryDy=0;" edge="1" parent="WIyWlLk6GJQsqaUBKTNV-1" source="WIyWlLk6GJQsqaUBKTNV-6" target="oElp1IYT9QteZJqBJ_s0-1">
          <mxGeometry relative="1" as="geometry" />
        </mxCell>
        <mxCell id="oElp1IYT9QteZJqBJ_s0-4" value="Yes" style="edgeLabel;html=1;align=center;verticalAlign=middle;resizable=0;points=[];" vertex="1" connectable="0" parent="oElp1IYT9QteZJqBJ_s0-3">
          <mxGeometry x="-0.12" y="8" relative="1" as="geometry">
            <mxPoint x="2" as="offset" />
          </mxGeometry>
        </mxCell>
        <mxCell id="WIyWlLk6GJQsqaUBKTNV-6" value="Interface specified in command line args?" style="rhombus;whiteSpace=wrap;html=1;shadow=0;fontFamily=Helvetica;fontSize=12;align=center;strokeWidth=1;spacing=6;spacingTop=-4;" parent="WIyWlLk6GJQsqaUBKTNV-1" vertex="1">
          <mxGeometry x="140" y="60" width="140" height="110" as="geometry" />
        </mxCell>
        <mxCell id="WIyWlLk6GJQsqaUBKTNV-7" value="exit(1â€™" style="rounded=1;whiteSpace=wrap;html=1;fontSize=12;glass=0;strokeWidth=1;shadow=0;" parent="WIyWlLk6GJQsqaUBKTNV-1" vertex="1">
          <mxGeometry x="330" y="95" width="120" height="40" as="geometry" />
        </mxCell>
        <mxCell id="WIyWlLk6GJQsqaUBKTNV-8" value="Success?" style="rounded=0;html=1;jettySize=auto;orthogonalLoop=1;fontSize=11;endArrow=block;endFill=0;endSize=8;strokeWidth=1;shadow=0;labelBackgroundColor=none;edgeStyle=orthogonalEdgeStyle;exitX=0.5;exitY=1;exitDx=0;exitDy=0;" parent="WIyWlLk6GJQsqaUBKTNV-1" source="oElp1IYT9QteZJqBJ_s0-1" target="WIyWlLk6GJQsqaUBKTNV-11" edge="1">
          <mxGeometry x="-0.25" y="30" relative="1" as="geometry">
            <mxPoint as="offset" />
            <mxPoint x="220" y="370" as="sourcePoint" />
          </mxGeometry>
        </mxCell>
        <mxCell id="WIyWlLk6GJQsqaUBKTNV-12" value="exit(2)" style="rounded=1;whiteSpace=wrap;html=1;fontSize=12;glass=0;strokeWidth=1;shadow=0;" parent="WIyWlLk6GJQsqaUBKTNV-1" vertex="1">
          <mxGeometry x="340" y="230" width="120" height="40" as="geometry" />
        </mxCell>
        <mxCell id="KMv6GLzev9-KEi0cF9zB-0" value="" style="edgeStyle=orthogonalEdgeStyle;rounded=0;orthogonalLoop=1;jettySize=auto;html=1;" edge="1" parent="WIyWlLk6GJQsqaUBKTNV-1" source="oElp1IYT9QteZJqBJ_s0-1" target="WIyWlLk6GJQsqaUBKTNV-12">
          <mxGeometry relative="1" as="geometry" />
        </mxCell>
        <mxCell id="KMv6GLzev9-KEi0cF9zB-1" value="Failed?" style="edgeLabel;html=1;align=center;verticalAlign=middle;resizable=0;points=[];" vertex="1" connectable="0" parent="KMv6GLzev9-KEi0cF9zB-0">
          <mxGeometry x="0.1429" y="4" relative="1" as="geometry">
            <mxPoint x="-2" y="1" as="offset" />
          </mxGeometry>
        </mxCell>
        <mxCell id="oElp1IYT9QteZJqBJ_s0-1" value="Open netmap interface using argv[1]" style="ellipse;whiteSpace=wrap;html=1;" vertex="1" parent="WIyWlLk6GJQsqaUBKTNV-1">
          <mxGeometry x="150" y="210" width="120" height="80" as="geometry" />
        </mxCell>
        <mxCell id="oElp1IYT9QteZJqBJ_s0-13" value="" style="edgeStyle=orthogonalEdgeStyle;rounded=0;orthogonalLoop=1;jettySize=auto;html=1;" edge="1" parent="WIyWlLk6GJQsqaUBKTNV-1" source="oElp1IYT9QteZJqBJ_s0-6" target="oElp1IYT9QteZJqBJ_s0-8">
          <mxGeometry relative="1" as="geometry" />
        </mxCell>
        <mxCell id="oElp1IYT9QteZJqBJ_s0-6" value="while(1)" style="shape=process;whiteSpace=wrap;html=1;backgroundOutline=1;" vertex="1" parent="WIyWlLk6GJQsqaUBKTNV-1">
          <mxGeometry x="150" y="390" width="120" height="30" as="geometry" />
        </mxCell>
        <mxCell id="oElp1IYT9QteZJqBJ_s0-19" value="" style="edgeStyle=orthogonalEdgeStyle;rounded=0;orthogonalLoop=1;jettySize=auto;html=1;" edge="1" parent="WIyWlLk6GJQsqaUBKTNV-1" source="oElp1IYT9QteZJqBJ_s0-8" target="oElp1IYT9QteZJqBJ_s0-14">
          <mxGeometry relative="1" as="geometry" />
        </mxCell>
        <mxCell id="oElp1IYT9QteZJqBJ_s0-20" value="Fail?" style="edgeLabel;html=1;align=center;verticalAlign=middle;resizable=0;points=[];" vertex="1" connectable="0" parent="oElp1IYT9QteZJqBJ_s0-19">
          <mxGeometry x="-0.0295" y="5" relative="1" as="geometry">
            <mxPoint as="offset" />
          </mxGeometry>
        </mxCell>
        <mxCell id="oElp1IYT9QteZJqBJ_s0-24" value="" style="edgeStyle=orthogonalEdgeStyle;rounded=0;orthogonalLoop=1;jettySize=auto;html=1;" edge="1" parent="WIyWlLk6GJQsqaUBKTNV-1" source="oElp1IYT9QteZJqBJ_s0-8" target="oElp1IYT9QteZJqBJ_s0-22">
          <mxGeometry relative="1" as="geometry" />
        </mxCell>
        <mxCell id="oElp1IYT9QteZJqBJ_s0-25" value="Success?" style="edgeLabel;html=1;align=center;verticalAlign=middle;resizable=0;points=[];" vertex="1" connectable="0" parent="oElp1IYT9QteZJqBJ_s0-24">
          <mxGeometry x="-0.2464" y="3" relative="1" as="geometry">
            <mxPoint as="offset" />
          </mxGeometry>
        </mxCell>
        <mxCell id="oElp1IYT9QteZJqBJ_s0-8" value="poll()" style="rounded=0;whiteSpace=wrap;html=1;" vertex="1" parent="WIyWlLk6GJQsqaUBKTNV-1">
          <mxGeometry x="150" y="440" width="120" height="40" as="geometry" />
        </mxCell>
        <mxCell id="oElp1IYT9QteZJqBJ_s0-14" value="exit(3)" style="rounded=0;whiteSpace=wrap;html=1;" vertex="1" parent="WIyWlLk6GJQsqaUBKTNV-1">
          <mxGeometry x="354" y="440" width="120" height="40" as="geometry" />
        </mxCell>
        <mxCell id="oElp1IYT9QteZJqBJ_s0-29" value="" style="edgeStyle=orthogonalEdgeStyle;rounded=0;orthogonalLoop=1;jettySize=auto;html=1;" edge="1" parent="WIyWlLk6GJQsqaUBKTNV-1" source="oElp1IYT9QteZJqBJ_s0-22" target="oElp1IYT9QteZJqBJ_s0-28">
          <mxGeometry relative="1" as="geometry" />
        </mxCell>
        <mxCell id="oElp1IYT9QteZJqBJ_s0-22" value="Initialize ring variable with RX_RING" style="rounded=1;whiteSpace=wrap;html=1;" vertex="1" parent="WIyWlLk6GJQsqaUBKTNV-1">
          <mxGeometry x="150" y="520" width="120" height="60" as="geometry" />
        </mxCell>
        <mxCell id="KMv6GLzev9-KEi0cF9zB-2" value="" style="edgeStyle=orthogonalEdgeStyle;rounded=0;orthogonalLoop=1;jettySize=auto;html=1;" edge="1" parent="WIyWlLk6GJQsqaUBKTNV-1" source="oElp1IYT9QteZJqBJ_s0-28" target="oElp1IYT9QteZJqBJ_s0-30">
          <mxGeometry relative="1" as="geometry" />
        </mxCell>
        <mxCell id="oElp1IYT9QteZJqBJ_s0-28" value="while(!RING_EMPTY)" style="shape=process;whiteSpace=wrap;html=1;backgroundOutline=1;" vertex="1" parent="WIyWlLk6GJQsqaUBKTNV-1">
          <mxGeometry x="130" y="610" width="160" height="60" as="geometry" />
        </mxCell>
        <mxCell id="KMv6GLzev9-KEi0cF9zB-5" style="edgeStyle=orthogonalEdgeStyle;rounded=0;orthogonalLoop=1;jettySize=auto;html=1;entryX=0;entryY=0.5;entryDx=0;entryDy=0;" edge="1" parent="WIyWlLk6GJQsqaUBKTNV-1" source="oElp1IYT9QteZJqBJ_s0-30" target="KMv6GLzev9-KEi0cF9zB-3">
          <mxGeometry relative="1" as="geometry">
            <mxPoint x="380" y="660" as="targetPoint" />
          </mxGeometry>
        </mxCell>
        <mxCell id="KMv6GLzev9-KEi0cF9zB-7" value="Returned zero?" style="edgeLabel;html=1;align=center;verticalAlign=middle;resizable=0;points=[];" vertex="1" connectable="0" parent="KMv6GLzev9-KEi0cF9zB-5">
          <mxGeometry x="0.2091" y="-2" relative="1" as="geometry">
            <mxPoint as="offset" />
          </mxGeometry>
        </mxCell>
        <mxCell id="KMv6GLzev9-KEi0cF9zB-6" value="Returned non-zero?" style="edgeStyle=orthogonalEdgeStyle;rounded=0;orthogonalLoop=1;jettySize=auto;html=1;entryX=0;entryY=0.5;entryDx=0;entryDy=0;" edge="1" parent="WIyWlLk6GJQsqaUBKTNV-1" source="oElp1IYT9QteZJqBJ_s0-30" target="KMv6GLzev9-KEi0cF9zB-4">
          <mxGeometry relative="1" as="geometry" />
        </mxCell>
        <mxCell id="KMv6GLzev9-KEi0cF9zB-13" style="edgeStyle=orthogonalEdgeStyle;rounded=0;orthogonalLoop=1;jettySize=auto;html=1;entryX=0.75;entryY=0;entryDx=0;entryDy=0;" edge="1" parent="WIyWlLk6GJQsqaUBKTNV-1" source="oElp1IYT9QteZJqBJ_s0-30" target="KMv6GLzev9-KEi0cF9zB-8">
          <mxGeometry relative="1" as="geometry">
            <mxPoint x="150" y="840" as="targetPoint" />
          </mxGeometry>
        </mxCell>
        <mxCell id="oElp1IYT9QteZJqBJ_s0-30" value="Take current packet, store it in buf and call filter_packet() with buf" style="rounded=0;whiteSpace=wrap;html=1;" vertex="1" parent="WIyWlLk6GJQsqaUBKTNV-1">
          <mxGeometry x="150" y="710" width="120" height="60" as="geometry" />
        </mxCell>
        <mxCell id="KMv6GLzev9-KEi0cF9zB-3" value="Drop packet" style="rounded=1;whiteSpace=wrap;html=1;" vertex="1" parent="WIyWlLk6GJQsqaUBKTNV-1">
          <mxGeometry x="400" y="620" width="120" height="60" as="geometry" />
        </mxCell>
        <mxCell id="KMv6GLzev9-KEi0cF9zB-4" value="Set ring flags according to NR_FORWARD and NS_FORWARD" style="rounded=1;whiteSpace=wrap;html=1;" vertex="1" parent="WIyWlLk6GJQsqaUBKTNV-1">
          <mxGeometry x="400" y="800" width="120" height="60" as="geometry" />
        </mxCell>
        <mxCell id="KMv6GLzev9-KEi0cF9zB-12" style="edgeStyle=orthogonalEdgeStyle;rounded=0;orthogonalLoop=1;jettySize=auto;html=1;entryX=0;entryY=0.5;entryDx=0;entryDy=0;" edge="1" parent="WIyWlLk6GJQsqaUBKTNV-1" source="KMv6GLzev9-KEi0cF9zB-8" target="oElp1IYT9QteZJqBJ_s0-28">
          <mxGeometry relative="1" as="geometry" />
        </mxCell>
        <mxCell id="KMv6GLzev9-KEi0cF9zB-8" value="Move cur to next packet" style="rounded=0;whiteSpace=wrap;html=1;" vertex="1" parent="WIyWlLk6GJQsqaUBKTNV-1">
          <mxGeometry x="50" y="850" width="120" height="60" as="geometry" />
        </mxCell>
      </root>
    </mxGraphModel>
  </diagram>
  <diagram id="2AnkqG3tsfBfyg4HcGUs" name="Page-2">
    <mxGraphModel dx="582" dy="532" grid="1" gridSize="10" guides="1" tooltips="1" connect="1" arrows="1" fold="1" page="1" pageScale="1" pageWidth="850" pageHeight="1100" math="0" shadow="0">
      <root>
        <mxCell id="9_UF8t9C_4_6IZoJW5gq-0" />
        <mxCell id="9_UF8t9C_4_6IZoJW5gq-1" parent="9_UF8t9C_4_6IZoJW5gq-0" />
        <mxCell id="-Feki9k2Nvgs6C3BcZAy-4" value="" style="edgeStyle=orthogonalEdgeStyle;rounded=0;orthogonalLoop=1;jettySize=auto;html=1;" edge="1" parent="9_UF8t9C_4_6IZoJW5gq-1" source="szJMgagIPz5VleqaQy3R-0" target="-Feki9k2Nvgs6C3BcZAy-1">
          <mxGeometry relative="1" as="geometry" />
        </mxCell>
        <mxCell id="szJMgagIPz5VleqaQy3R-0" value="filter_packet()" style="rounded=0;whiteSpace=wrap;html=1;" vertex="1" parent="9_UF8t9C_4_6IZoJW5gq-1">
          <mxGeometry x="250" y="250" width="120" height="60" as="geometry" />
        </mxCell>
        <mxCell id="-Feki9k2Nvgs6C3BcZAy-8" value="" style="edgeStyle=orthogonalEdgeStyle;rounded=0;orthogonalLoop=1;jettySize=auto;html=1;" edge="1" parent="9_UF8t9C_4_6IZoJW5gq-1" source="-Feki9k2Nvgs6C3BcZAy-1" target="-Feki9k2Nvgs6C3BcZAy-7">
          <mxGeometry relative="1" as="geometry" />
        </mxCell>
        <mxCell id="-Feki9k2Nvgs6C3BcZAy-9" value="Not OK?" style="edgeLabel;html=1;align=center;verticalAlign=middle;resizable=0;points=[];" vertex="1" connectable="0" parent="-Feki9k2Nvgs6C3BcZAy-8">
          <mxGeometry x="-0.0857" y="-2" relative="1" as="geometry">
            <mxPoint as="offset" />
          </mxGeometry>
        </mxCell>
        <mxCell id="-Feki9k2Nvgs6C3BcZAy-11" value="" style="edgeStyle=orthogonalEdgeStyle;rounded=0;orthogonalLoop=1;jettySize=auto;html=1;" edge="1" parent="9_UF8t9C_4_6IZoJW5gq-1" source="-Feki9k2Nvgs6C3BcZAy-1" target="-Feki9k2Nvgs6C3BcZAy-10">
          <mxGeometry relative="1" as="geometry" />
        </mxCell>
        <mxCell id="-Feki9k2Nvgs6C3BcZAy-1" value="Check &lt;br&gt;ip_info-&amp;gt;protocol ?" style="rhombus;whiteSpace=wrap;html=1;" vertex="1" parent="9_UF8t9C_4_6IZoJW5gq-1">
          <mxGeometry x="230" y="360" width="160" height="80" as="geometry" />
        </mxCell>
        <mxCell id="-Feki9k2Nvgs6C3BcZAy-7" value="return to receiver()" style="rounded=0;whiteSpace=wrap;html=1;" vertex="1" parent="9_UF8t9C_4_6IZoJW5gq-1">
          <mxGeometry x="460" y="370" width="120" height="60" as="geometry" />
        </mxCell>
        <mxCell id="-Feki9k2Nvgs6C3BcZAy-10" value="Send buf to Cuda kernel and store the output that kernel returns in processed buf variable and then, replace the contents of buf with those of processedbuf. This buf goes on the ring now." style="rounded=0;whiteSpace=wrap;html=1;" vertex="1" parent="9_UF8t9C_4_6IZoJW5gq-1">
          <mxGeometry x="205" y="510" width="210" height="100" as="geometry" />
        </mxCell>
      </root>
    </mxGraphModel>
  </diagram>
  <diagram id="UXVtnJkwFFcUjrqpMywk" name="Page-3">
    <mxGraphModel dx="1463" dy="560" grid="1" gridSize="10" guides="1" tooltips="1" connect="1" arrows="1" fold="1" page="1" pageScale="1" pageWidth="850" pageHeight="1100" math="0" shadow="0">
      <root>
        <mxCell id="0y3Fp-OyZBSPtQiO12RF-0" />
        <mxCell id="0y3Fp-OyZBSPtQiO12RF-1" parent="0y3Fp-OyZBSPtQiO12RF-0" />
        <mxCell id="0y3Fp-OyZBSPtQiO12RF-6" value="" style="edgeStyle=orthogonalEdgeStyle;rounded=0;orthogonalLoop=1;jettySize=auto;html=1;" edge="1" parent="0y3Fp-OyZBSPtQiO12RF-1" source="0y3Fp-OyZBSPtQiO12RF-2" target="0y3Fp-OyZBSPtQiO12RF-4">
          <mxGeometry relative="1" as="geometry" />
        </mxCell>
        <mxCell id="0y3Fp-OyZBSPtQiO12RF-2" value="receiver()" style="rounded=0;whiteSpace=wrap;html=1;" vertex="1" parent="0y3Fp-OyZBSPtQiO12RF-1">
          <mxGeometry x="200" y="60" width="120" height="60" as="geometry" />
        </mxCell>
        <mxCell id="0y3Fp-OyZBSPtQiO12RF-7" value="" style="edgeStyle=orthogonalEdgeStyle;rounded=0;orthogonalLoop=1;jettySize=auto;html=1;" edge="1" parent="0y3Fp-OyZBSPtQiO12RF-1" source="0y3Fp-OyZBSPtQiO12RF-4" target="0y3Fp-OyZBSPtQiO12RF-5">
          <mxGeometry relative="1" as="geometry" />
        </mxCell>
        <mxCell id="0y3Fp-OyZBSPtQiO12RF-4" value="while(1)" style="shape=process;whiteSpace=wrap;html=1;backgroundOutline=1;" vertex="1" parent="0y3Fp-OyZBSPtQiO12RF-1">
          <mxGeometry x="200" y="160" width="120" height="40" as="geometry" />
        </mxCell>
        <mxCell id="0y3Fp-OyZBSPtQiO12RF-9" value="" style="edgeStyle=orthogonalEdgeStyle;rounded=0;orthogonalLoop=1;jettySize=auto;html=1;" edge="1" parent="0y3Fp-OyZBSPtQiO12RF-1" source="0y3Fp-OyZBSPtQiO12RF-5" target="0y3Fp-OyZBSPtQiO12RF-8">
          <mxGeometry relative="1" as="geometry" />
        </mxCell>
        <mxCell id="0y3Fp-OyZBSPtQiO12RF-10" value="Failed?" style="edgeLabel;html=1;align=center;verticalAlign=middle;resizable=0;points=[];" vertex="1" connectable="0" parent="0y3Fp-OyZBSPtQiO12RF-9">
          <mxGeometry x="0.0286" y="6" relative="1" as="geometry">
            <mxPoint as="offset" />
          </mxGeometry>
        </mxCell>
        <mxCell id="0y3Fp-OyZBSPtQiO12RF-12" value="" style="edgeStyle=orthogonalEdgeStyle;rounded=0;orthogonalLoop=1;jettySize=auto;html=1;" edge="1" parent="0y3Fp-OyZBSPtQiO12RF-1" source="0y3Fp-OyZBSPtQiO12RF-5" target="0y3Fp-OyZBSPtQiO12RF-11">
          <mxGeometry relative="1" as="geometry" />
        </mxCell>
        <mxCell id="0y3Fp-OyZBSPtQiO12RF-13" value="Success?" style="edgeLabel;html=1;align=center;verticalAlign=middle;resizable=0;points=[];" vertex="1" connectable="0" parent="0y3Fp-OyZBSPtQiO12RF-12">
          <mxGeometry x="-0.2" y="1" relative="1" as="geometry">
            <mxPoint as="offset" />
          </mxGeometry>
        </mxCell>
        <mxCell id="0y3Fp-OyZBSPtQiO12RF-5" value="Poll()" style="rounded=0;whiteSpace=wrap;html=1;" vertex="1" parent="0y3Fp-OyZBSPtQiO12RF-1">
          <mxGeometry x="200" y="240" width="120" height="40" as="geometry" />
        </mxCell>
        <mxCell id="0y3Fp-OyZBSPtQiO12RF-8" value="exit(3)" style="rounded=0;whiteSpace=wrap;html=1;" vertex="1" parent="0y3Fp-OyZBSPtQiO12RF-1">
          <mxGeometry x="425" y="240" width="120" height="40" as="geometry" />
        </mxCell>
        <mxCell id="0y3Fp-OyZBSPtQiO12RF-18" value="" style="edgeStyle=orthogonalEdgeStyle;rounded=0;orthogonalLoop=1;jettySize=auto;html=1;" edge="1" parent="0y3Fp-OyZBSPtQiO12RF-1" source="0y3Fp-OyZBSPtQiO12RF-11" target="0y3Fp-OyZBSPtQiO12RF-17">
          <mxGeometry relative="1" as="geometry" />
        </mxCell>
        <mxCell id="0y3Fp-OyZBSPtQiO12RF-11" value="Initialize ring variable with RX_RING" style="rounded=0;whiteSpace=wrap;html=1;" vertex="1" parent="0y3Fp-OyZBSPtQiO12RF-1">
          <mxGeometry x="200" y="320" width="120" height="40" as="geometry" />
        </mxCell>
        <mxCell id="0y3Fp-OyZBSPtQiO12RF-20" value="" style="edgeStyle=orthogonalEdgeStyle;rounded=0;orthogonalLoop=1;jettySize=auto;html=1;" edge="1" parent="0y3Fp-OyZBSPtQiO12RF-1" source="0y3Fp-OyZBSPtQiO12RF-17" target="0y3Fp-OyZBSPtQiO12RF-19">
          <mxGeometry relative="1" as="geometry" />
        </mxCell>
        <mxCell id="0y3Fp-OyZBSPtQiO12RF-17" value="while(!RING_EMPTY)" style="shape=process;whiteSpace=wrap;html=1;backgroundOutline=1;" vertex="1" parent="0y3Fp-OyZBSPtQiO12RF-1">
          <mxGeometry x="180" y="400" width="160" height="40" as="geometry" />
        </mxCell>
        <mxCell id="0y3Fp-OyZBSPtQiO12RF-24" value="" style="edgeStyle=orthogonalEdgeStyle;rounded=0;orthogonalLoop=1;jettySize=auto;html=1;" edge="1" parent="0y3Fp-OyZBSPtQiO12RF-1" source="0y3Fp-OyZBSPtQiO12RF-19" target="0y3Fp-OyZBSPtQiO12RF-21">
          <mxGeometry relative="1" as="geometry" />
        </mxCell>
        <mxCell id="0y3Fp-OyZBSPtQiO12RF-26" value="" style="edgeStyle=orthogonalEdgeStyle;rounded=0;orthogonalLoop=1;jettySize=auto;html=1;" edge="1" parent="0y3Fp-OyZBSPtQiO12RF-1" source="0y3Fp-OyZBSPtQiO12RF-19" target="0y3Fp-OyZBSPtQiO12RF-25">
          <mxGeometry relative="1" as="geometry" />
        </mxCell>
        <mxCell id="0y3Fp-OyZBSPtQiO12RF-27" value="Yes" style="edgeLabel;html=1;align=center;verticalAlign=middle;resizable=0;points=[];" vertex="1" connectable="0" parent="0y3Fp-OyZBSPtQiO12RF-26">
          <mxGeometry x="-0.1895" y="5" relative="1" as="geometry">
            <mxPoint as="offset" />
          </mxGeometry>
        </mxCell>
        <mxCell id="0y3Fp-OyZBSPtQiO12RF-29" style="edgeStyle=orthogonalEdgeStyle;rounded=0;orthogonalLoop=1;jettySize=auto;html=1;entryX=0.5;entryY=0;entryDx=0;entryDy=0;" edge="1" parent="0y3Fp-OyZBSPtQiO12RF-1" source="0y3Fp-OyZBSPtQiO12RF-19" target="0y3Fp-OyZBSPtQiO12RF-28">
          <mxGeometry relative="1" as="geometry">
            <mxPoint x="260" y="640" as="targetPoint" />
          </mxGeometry>
        </mxCell>
        <mxCell id="0y3Fp-OyZBSPtQiO12RF-19" value="((Buffer not full) OR (Time quanta not expired))?" style="rhombus;whiteSpace=wrap;html=1;" vertex="1" parent="0y3Fp-OyZBSPtQiO12RF-1">
          <mxGeometry x="110" y="480" width="300" height="100" as="geometry" />
        </mxCell>
        <mxCell id="0y3Fp-OyZBSPtQiO12RF-21" value="Buffer here will be a queue" style="ellipse;shape=cloud;whiteSpace=wrap;html=1;" vertex="1" parent="0y3Fp-OyZBSPtQiO12RF-1">
          <mxGeometry x="-60" y="490" width="140" height="80" as="geometry" />
        </mxCell>
        <mxCell id="0y3Fp-OyZBSPtQiO12RF-25" value="Keep pushing packets from RX ring onto the buffer. Keep popping them from RX_RING alongside" style="rounded=0;whiteSpace=wrap;html=1;" vertex="1" parent="0y3Fp-OyZBSPtQiO12RF-1">
          <mxGeometry x="500" y="495" width="120" height="70" as="geometry" />
        </mxCell>
        <mxCell id="0y3Fp-OyZBSPtQiO12RF-35" style="edgeStyle=orthogonalEdgeStyle;rounded=0;orthogonalLoop=1;jettySize=auto;html=1;" edge="1" parent="0y3Fp-OyZBSPtQiO12RF-1" source="0y3Fp-OyZBSPtQiO12RF-28" target="0y3Fp-OyZBSPtQiO12RF-30">
          <mxGeometry relative="1" as="geometry" />
        </mxCell>
        <mxCell id="0y3Fp-OyZBSPtQiO12RF-37" value="1st way" style="edgeLabel;html=1;align=center;verticalAlign=middle;resizable=0;points=[];" vertex="1" connectable="0" parent="0y3Fp-OyZBSPtQiO12RF-35">
          <mxGeometry x="-0.4246" y="-7" relative="1" as="geometry">
            <mxPoint as="offset" />
          </mxGeometry>
        </mxCell>
        <mxCell id="0y3Fp-OyZBSPtQiO12RF-36" style="edgeStyle=orthogonalEdgeStyle;rounded=0;orthogonalLoop=1;jettySize=auto;html=1;entryX=0.5;entryY=0;entryDx=0;entryDy=0;" edge="1" parent="0y3Fp-OyZBSPtQiO12RF-1" source="0y3Fp-OyZBSPtQiO12RF-28" target="0y3Fp-OyZBSPtQiO12RF-31">
          <mxGeometry relative="1" as="geometry" />
        </mxCell>
        <mxCell id="0y3Fp-OyZBSPtQiO12RF-38" value="2nd way" style="edgeLabel;html=1;align=center;verticalAlign=middle;resizable=0;points=[];" vertex="1" connectable="0" parent="0y3Fp-OyZBSPtQiO12RF-36">
          <mxGeometry x="-0.5502" y="2" relative="1" as="geometry">
            <mxPoint as="offset" />
          </mxGeometry>
        </mxCell>
        <mxCell id="0y3Fp-OyZBSPtQiO12RF-28" value="Send buffer to kernel (CUDA) and get it processed." style="rounded=0;whiteSpace=wrap;html=1;" vertex="1" parent="0y3Fp-OyZBSPtQiO12RF-1">
          <mxGeometry x="200" y="680" width="120" height="60" as="geometry" />
        </mxCell>
        <mxCell id="0y3Fp-OyZBSPtQiO12RF-30" value="Do the processing on CUDA. Now, after processing is done, push these processed packets onto the TX ring from CUDA itself, i.e., from outside of the kernel module. This way, we donâ€™t have to wait in the main() till CUDA finishes processing to push more packets in queue and we can run parallel streams asynchronously" style="rounded=0;whiteSpace=wrap;html=1;" vertex="1" parent="0y3Fp-OyZBSPtQiO12RF-1">
          <mxGeometry x="-80" y="840" width="240" height="120" as="geometry" />
        </mxCell>
        <mxCell id="0y3Fp-OyZBSPtQiO12RF-31" value="Get packets from kernel back as a queue in the main() function. Now, put these on RX or TX ring and then, again, start buffering packets from RX_RING. This way, we will have to wait till CUDA kernel has processed the first batch." style="rounded=0;whiteSpace=wrap;html=1;" vertex="1" parent="0y3Fp-OyZBSPtQiO12RF-1">
          <mxGeometry x="360" y="840" width="240" height="120" as="geometry" />
        </mxCell>
      </root>
    </mxGraphModel>
  </diagram>
</mxfile>
